<svg width="24" height="24" viewBox="0 0 24 24" fill="none" xmlns="http://www.w3.org/2000/svg">
  <path
    d="M3.64935 3.36664L3 4.26665C3.40198 4.57669 4.11317 4.85482 4.82435 4.6688C5.25725 5.00984 5.9169 4.95817 6.24673 4.94783C6.1952 5.48523 6.12305 7.2173 6.24673 9.84642C6.37042 12.4755 8.27723 14.2696 9.21517 14.838L8.58821 18.1764L9.21517 21.9999H11.0086L10.2058 18.1764L11.0086 14.838L12.5547 21.9999H14.379L12.8639 14.838H16.76L15.2448 21.9999H17.1001L18.6152 14.838L19.6176 18.1764L18.6152 21.9999H20.4705L21.2352 18.1764L20.4396 14.838C20.5942 14.435 20.6764 14.2775 20.7797 13.8459C21.3363 11.5206 20.285 9.63972 19.6666 8.94731L18.1823 7.42813C17.533 6.77705 16.4198 6.74605 15.7086 7.33511C15.1858 7.76817 14.8897 7.79207 14.379 7.33511C14.1626 7.14909 13.6275 6.52121 12.9257 5.93995C12.2145 5.35088 10.9777 5.59891 10.5139 6.09497L8.41122 8.20322V2.56055L8.81814 2C7.47822 2.2687 4.75014 2.70316 4.4533 2.77757C4.15645 2.85198 3.79365 3.20129 3.64935 3.36664Z"
    fill="#4C19E8" />
  <path d="M6.17664 3.37683L6.60953 2.95996L7.04243 3.37683L6.60953 3.82576L6.17664 3.37683Z" fill="white" />
</svg>
