<svg width="24" height="24" viewBox="0 0 24 24" fill="none" xmlns="http://www.w3.org/2000/svg">
  <g clip-path="url(#clip0_1240_12290)">
    <path
      d="M17.4062 14.8L20.383 10.7827C20.6988 10.3565 20.8323 9.82233 20.7543 9.29768C20.6762 8.77302 20.3929 8.30086 19.9668 7.98506C19.5406 7.66927 19.0064 7.53571 18.4817 7.61376C17.9571 7.69182 17.4849 7.9751 17.1691 8.40128M14.7877 11.6151L18.3598 6.79436C18.6756 6.36817 18.8092 5.83399 18.7311 5.30934C18.6531 4.78468 18.3698 4.31252 17.9436 3.99672C17.5174 3.68093 16.9832 3.54737 16.4586 3.62542C15.9339 3.70348 15.4618 3.98676 15.146 4.41295L13.9553 6.01987M13.9553 6.01987L11.2762 9.63546M13.9553 6.01987C14.2711 5.59369 14.4046 5.05951 14.3266 4.53485C14.2485 4.0102 13.9652 3.53803 13.539 3.22224C13.1129 2.90645 12.5787 2.77289 12.054 2.85094C11.5294 2.929 11.0572 3.21228 10.7414 3.63846L5.97859 10.0662M19.1924 12.3897C19.5082 11.9635 19.9803 11.6802 20.505 11.6022C21.0296 11.5241 21.5638 11.6577 21.99 11.9735C22.4162 12.2893 22.6995 12.7614 22.7775 13.2861C22.8556 13.8107 22.722 14.3449 22.4062 14.7711L18.8341 19.5919C17.5709 21.2966 15.6823 22.4297 13.5836 22.742C11.485 23.0542 9.3483 22.52 7.64356 21.2568L6.03663 20.0661C3.78693 18.3991 2.93305 16.696 2.61701 14.6198L1.8678 9.58406C1.81822 9.07306 1.96705 8.56256 2.28348 8.15826C2.59991 7.75396 3.0597 7.48683 3.56764 7.41217C4.07559 7.33752 4.59279 7.46107 5.01217 7.75723C5.43154 8.05339 5.72096 8.49948 5.8205 9.00314L6.18678 11.4651"
      stroke="#27272A" stroke-width="2" stroke-linecap="round" stroke-linejoin="round" />
  </g>
  <defs>
    <clipPath id="clip0_1240_12290">
      <rect width="24" height="24" fill="white" />
    </clipPath>
  </defs>
</svg>
