<svg width="24" height="24" viewBox="0 0 24 24" fill="none" xmlns="http://www.w3.org/2000/svg">
<path d="M19.8752 11.2497C20.9106 11.2497 21.75 10.4103 21.75 9.37485C21.75 8.3394 20.9105 7.5 19.8751 7.5C18.8395 7.5 18 8.33948 18 9.375V11.2497H19.8752ZM14.625 11.2497C15.6605 11.2497 16.5 10.4102 16.5 9.3747V4.125C16.5 3.08947 15.6605 2.25 14.625 2.25C13.5895 2.25 12.75 3.08947 12.75 4.125V9.3747C12.75 10.4102 13.5895 11.2497 14.625 11.2497Z" fill="#2EB67D"/>
<path d="M4.12484 12.7504C3.08939 12.7504 2.25 13.5898 2.25 14.6252C2.25 15.6607 3.08947 16.5001 4.12492 16.5001C5.16045 16.5001 6 15.6606 6 14.6251V12.7504H4.12484ZM9.375 12.7504C8.33948 12.7504 7.5 13.5898 7.5 14.6254V19.8751C7.5 20.9106 8.33948 21.7501 9.375 21.7501C10.4105 21.7501 11.25 20.9106 11.25 19.8751V14.6254C11.25 13.5898 10.4105 12.7504 9.375 12.7504Z" fill="#E01E5A"/>
<path d="M12.7502 19.8752C12.7502 20.9106 13.5896 21.75 14.6251 21.75C15.6605 21.75 16.4999 20.9105 16.4999 19.8751C16.4999 18.8395 15.6605 18 14.6249 18H12.7502V19.8752ZM12.7502 14.625C12.7502 15.6605 13.5897 16.5 14.6252 16.5H19.8749C20.9105 16.5 21.7499 15.6605 21.7499 14.625C21.7499 13.5895 20.9105 12.75 19.8749 12.75H14.6252C13.5897 12.75 12.7502 13.5895 12.7502 14.625Z" fill="#ECB22E"/>
<path d="M11.2497 4.12484C11.2497 3.08939 10.4103 2.25 9.37485 2.25C8.3394 2.25 7.5 3.08947 7.5 4.12492C7.5 5.16046 8.33948 6 9.375 6H11.2497V4.12484ZM11.2497 9.375C11.2497 8.33948 10.4102 7.5 9.3747 7.5H4.125C3.08947 7.5 2.25 8.33948 2.25 9.375C2.25 10.4105 3.08947 11.25 4.125 11.25H9.3747C10.4102 11.25 11.2497 10.4105 11.2497 9.375Z" fill="#36C5F0"/>
</svg>
