<svg width="80" height="80" viewBox="0 0 80 80" fill="none" xmlns="http://www.w3.org/2000/svg">
<mask id="mask0_6953_296649" style="mask-type:luminance" maskUnits="userSpaceOnUse" x="0" y="0" width="80" height="80">
<path fill-rule="evenodd" clip-rule="evenodd" d="M80 24.9152C80 23.9655 80.0004 23.0157 79.9946 22.0659C79.9898 21.2658 79.9806 20.4659 79.9588 19.6662C79.9118 17.9232 79.809 16.1653 79.499 14.4417C79.1847 12.6933 78.6713 11.066 77.8622 9.47734C77.0669 7.91589 76.028 6.48706 74.7884 5.24833C73.5491 4.0096 72.1199 2.97135 70.5578 2.1765C68.9675 1.36728 67.3385 0.854075 65.5882 0.539804C63.8644 0.23029 62.106 0.127669 60.363 0.0805822C59.5627 0.0589318 58.7624 0.0498056 57.9619 0.0448542C57.0116 0.039029 56.0613 0.0395144 55.111 0.0395144L44.0773 0H35.825L24.9865 0.0395144C24.0344 0.0395144 23.0823 0.039029 22.1301 0.0448542C21.328 0.0498056 20.5263 0.0589318 19.7244 0.0805822C17.9773 0.127669 16.2149 0.230387 14.4871 0.540289C12.7344 0.854463 11.1029 1.36747 9.51051 2.17611C7.94518 2.97106 6.51286 4.0094 5.27093 5.24833C4.02919 6.48697 2.98833 7.91551 2.19154 9.47666C1.38028 11.0661 0.865916 12.6943 0.550773 14.4437C0.240484 16.1666 0.137669 17.924 0.0903877 19.6662C0.0688344 20.466 0.0595141 21.2659 0.0546598 22.0659C0.0488346 23.0158 0 24.1957 0 25.1455L0.00029126 35.8338L0 44.1746L0.04932 55.09C0.04932 56.0411 0.0489317 56.9921 0.0546598 57.9432C0.0595141 58.7443 0.0688344 59.5453 0.0904848 60.3462C0.137669 62.0914 0.240678 63.8519 0.551258 65.5778C0.866304 67.3286 1.38057 68.9582 2.19115 70.5489C2.98804 72.1126 4.0291 73.5432 5.27093 74.7837C6.51277 76.0242 7.9447 77.0638 9.50974 77.8598C11.1031 78.6701 12.7353 79.184 14.4891 79.4986C16.2162 79.8086 17.978 79.9115 19.7244 79.9585C20.5263 79.9802 21.3281 79.9894 22.1302 79.9943C23.0824 80.0001 24.0344 79.9997 24.9865 79.9997L35.9229 80H44.1958L55.111 79.9996C56.0613 79.9996 57.0116 80.0001 57.9619 79.9943C58.7624 79.9894 59.5627 79.9802 60.363 79.9585C62.1066 79.9114 63.8656 79.8085 65.5902 79.4983C67.3395 79.1836 68.9677 78.6699 70.5571 77.8601C72.1195 77.0642 73.549 76.0244 74.7884 74.7837C76.0278 73.5434 77.0666 72.1129 77.862 70.5496C78.6715 68.9581 79.1849 67.3277 79.4994 65.5758C79.8091 63.8505 79.9118 62.0907 79.9589 60.3462C79.9806 59.5452 79.9898 58.7443 79.9946 57.9432C80.0005 56.9921 80 56.0411 80 55.09C80 55.09 79.9994 44.3673 79.9994 44.1746V35.8251C79.9994 35.6828 80 24.9152 80 24.9152" fill="white"/>
</mask>
<g mask="url(#mask0_6953_296649)">
<rect width="80" height="80" fill="white"/>
<rect x="-0.00012207" width="79.9999" height="79.9999" fill="#1D1D1D"/>
<path d="M68.889 61.7776H50.222V59.1213L50.6586 59.1145C53.0165 59.0747 54.4172 58.8281 54.8822 58.6858C55.3444 58.5245 55.5981 58.3326 55.724 58.1497C55.7958 58.0238 55.8824 57.7577 55.9545 57.2942C56.0263 56.8323 56.0779 56.2222 56.1078 55.4602V55.4573C56.1274 55.0477 56.1685 52.2196 56.2289 46.9504H56.2279V33.0491C56.2279 30.3312 56.1983 27.673 56.1381 25.0754L56.1117 24.4065C56.081 23.7749 56.0382 23.258 55.9838 22.8538C55.9475 22.5845 55.9069 22.3736 55.8646 22.2161C55.8201 22.0502 55.7815 21.9768 55.767 21.9563L55.7582 21.9436L55.7504 21.9319C55.6007 21.6883 55.333 21.481 54.8822 21.343L54.8724 21.3401L54.8627 21.3362C54.6753 21.2692 54.245 21.1993 53.515 21.1438C52.8031 21.0897 51.8518 21.0524 50.6586 21.0325L50.222 21.0247V18.2219H68.889V21.0247L68.4515 21.0325C67.2583 21.0524 66.3043 21.0897 65.5873 21.1438C64.8536 21.1992 64.4125 21.2692 64.2123 21.3381L64.2025 21.342C63.7611 21.4826 63.5149 21.6636 63.3881 21.8459C63.3159 21.9703 63.2294 22.2375 63.1566 22.7053C63.0848 23.1672 63.0322 23.7765 63.0023 24.5383V24.5432C62.9828 24.9322 62.9427 27.761 62.8822 33.054V46.9504C62.8822 49.6683 62.9128 52.3163 62.973 54.8938L62.9984 55.5647C63.0282 56.1977 63.0695 56.7178 63.1205 57.1272C63.1545 57.4001 63.192 57.6165 63.2318 57.7805C63.2718 57.9453 63.3081 58.0301 63.3275 58.0637C63.5032 58.3203 63.7822 58.5336 64.2025 58.6868C64.4106 58.7494 64.8561 58.8126 65.5844 58.8625C66.3028 58.9118 67.2578 58.9471 68.4515 58.967L68.889 58.9749V61.7776Z" fill="white" stroke="white" stroke-width="0.888884"/>
<path d="M30.9114 18.2219C31.7806 18.2219 32.5015 18.4913 32.97 19.1077H32.969C33.4126 19.6477 33.721 20.4784 33.9319 21.5354L34.2297 22.9231C34.6411 24.8144 35.3934 28.216 36.4875 33.1301L37.0227 35.5032C38.2421 40.864 39.2645 44.996 40.0901 47.9026C41.0376 51.2387 41.7784 53.4889 42.3127 54.679C42.8305 55.8318 43.4408 56.4854 43.9641 57.0432C44.1186 57.2078 44.4624 57.4708 44.9026 57.762C45.3324 58.0463 45.8192 58.335 46.2327 58.5491C46.4728 58.6734 46.9343 58.8326 47.4563 58.9592C47.9774 59.0856 48.5049 59.1657 48.8762 59.1555L49.3333 59.1428V61.7776H48.8889C47.8866 61.7776 46.7959 61.772 45.8137 61.7668C44.8307 61.7617 43.9575 61.7571 43.387 61.7571H40.7708C39.8065 61.757 38.9555 61.4734 38.2405 60.8967C37.5321 60.3253 36.9844 59.4881 36.5774 58.4231C35.7864 56.3532 34.4057 50.8501 32.4387 41.9651V41.9641L28.6604 25.5725V25.5715C28.2658 23.8895 27.7944 22.8246 27.2913 22.2834C26.8263 21.7835 26.0002 21.4788 24.6897 21.4788C24.4653 21.4788 24.1382 21.4826 23.719 21.4866C23.3012 21.4905 22.796 21.4944 22.2219 21.4944H21.7776V19.4944L22.1252 19.4172C26.1543 18.5233 29.7931 18.222 30.9114 18.2219Z" fill="white" stroke="white" stroke-width="0.888884"/>
<path d="M26.4764 32.7129C24.1301 38.1575 20.5911 46.0052 18.6884 50.2549C17.4113 53.1072 17.7657 52.2809 17.0936 53.6455C16.8562 54.1273 16.2507 54.9704 15.618 55.7832C14.9915 56.5882 14.3805 57.3115 14.1591 57.543C14.0251 57.683 13.7206 57.912 13.326 58.168C12.9426 58.4167 12.5082 58.6683 12.1395 58.8555H12.1385C11.9355 58.9586 11.5334 59.0848 11.0643 59.1826C10.6005 59.2793 10.1257 59.3372 9.78992 59.3281L9.33289 59.3154V61.7773H15.7079C17.4134 61.7773 19.4033 60.8064 20.1786 58.8174C20.8758 57.0286 25.6691 44.1825 27.9794 36.8857L28.0116 36.7822L27.993 36.6758L27.3221 32.8125L27.0673 31.3418L26.4764 32.7129Z" fill="white" stroke="white" stroke-width="0.888884"/>
</g>
</svg>
