<svg width="24" height="24" viewBox="0 0 24 24" fill="none" xmlns="http://www.w3.org/2000/svg">
<mask id="mask0_5376_9181" style="mask-type:luminance" maskUnits="userSpaceOnUse" x="0" y="0" width="24" height="24">
<path d="M23.9862 0.00292969H0.0195312V23.9696H23.9862V0.00292969Z" fill="white"/>
</mask>
<g mask="url(#mask0_5376_9181)">
<mask id="mask1_5376_9181" style="mask-type:luminance" maskUnits="userSpaceOnUse" x="1" y="1" width="22" height="22">
<path d="M23 1H1V22.8036H23V1Z" fill="white"/>
</mask>
<g mask="url(#mask1_5376_9181)">
<path d="M9.43799 8.93649V6.86513C9.43799 6.69068 9.50347 6.55981 9.65601 6.4727L13.8206 4.0743C14.3875 3.74726 15.0635 3.59471 15.7611 3.59471C18.3775 3.59471 20.0347 5.62249 20.0347 7.78096C20.0347 7.93355 20.0347 8.108 20.0128 8.28245L15.6956 5.75318C15.434 5.60063 15.1723 5.60063 14.9107 5.75318L9.43799 8.93649ZM19.1624 17.0039V12.0544C19.1624 11.749 19.0315 11.531 18.7699 11.3784L13.2972 8.19511L15.0851 7.17027C15.2377 7.08316 15.3686 7.08316 15.5212 7.17027L19.6858 9.56868C20.8851 10.2665 21.6917 11.749 21.6917 13.188C21.6917 14.845 20.7106 16.3714 19.1624 17.0037V17.0039ZM8.15158 12.6432L6.36369 11.5967C6.21114 11.5096 6.14566 11.3787 6.14566 11.2042V6.40745C6.14566 4.07453 7.93355 2.30831 10.3538 2.30831C11.2697 2.30831 12.1199 2.61363 12.8396 3.1587L8.54424 5.64439C8.28268 5.79694 8.15181 6.01497 8.15181 6.32034V12.6434L8.15158 12.6432ZM12 14.8671L9.43799 13.4281V10.3757L12 8.93672L14.5618 10.3757V13.4281L12 14.8671ZM13.6461 21.4955C12.7303 21.4955 11.8801 21.1902 11.1604 20.6452L15.4557 18.1594C15.7173 18.0069 15.8482 17.7889 15.8482 17.4835V11.1604L17.658 12.207C17.8105 12.2941 17.876 12.4249 17.876 12.5994V17.3962C17.876 19.7291 16.0662 21.4953 13.6461 21.4953V21.4955ZM8.47863 16.6333L4.314 14.235C3.11471 13.5371 2.30808 12.0546 2.30808 10.6156C2.30808 8.93672 3.31106 7.43229 4.85903 6.79993V11.7711C4.85903 12.0765 4.98995 12.2945 5.25151 12.4471L10.7025 15.6085L8.91464 16.6333C8.76209 16.7204 8.63117 16.7204 8.47863 16.6333ZM8.23892 20.2091C5.77508 20.2091 3.96533 18.3558 3.96533 16.0664C3.96533 15.892 3.98719 15.7175 4.00886 15.5431L8.30418 18.0287C8.56574 18.1813 8.82752 18.1813 9.08909 18.0287L14.5618 14.8673V16.9387C14.5618 17.1131 14.4964 17.244 14.3438 17.3311L10.1792 19.7295C9.61225 20.0566 8.93631 20.2091 8.23869 20.2091H8.23892ZM13.6461 22.8036C16.2844 22.8036 18.4865 20.9286 18.9882 18.4429C21.4301 17.8105 23 15.5211 23 13.1882C23 11.6619 22.346 10.1794 21.1685 9.11094C21.2775 8.65303 21.343 8.19512 21.343 7.73743C21.343 4.61955 18.8137 2.2864 15.892 2.2864C15.3034 2.2864 14.7365 2.37351 14.1695 2.56987C13.1882 1.61046 11.8364 1 10.3538 1C7.71557 1 5.51352 2.87501 5.01185 5.3607C2.56987 5.99307 1 8.28245 1 10.6154C1 12.1417 1.65404 13.6242 2.83147 14.6927C2.72246 15.1506 2.65702 15.6085 2.65702 16.0662C2.65702 19.1841 5.1863 21.5172 8.108 21.5172C8.69661 21.5172 9.26354 21.4301 9.83046 21.2337C10.8115 22.1931 12.1634 22.8036 13.6461 22.8036Z" fill="black"/>
</g>
</g>
</svg>
