<svg width="16" height="16" viewBox="0 0 16 16" fill="none" xmlns="http://www.w3.org/2000/svg">
<g clip-path="url(#clip0_7337_66340)">
<path d="M2.5668 5.74669C2.46949 5.30838 2.48443 4.85259 2.61023 4.42158C2.73604 3.99058 2.96863 3.59832 3.28644 3.28117C3.60425 2.96402 3.997 2.73225 4.42827 2.60735C4.85953 2.48245 5.31535 2.46847 5.75346 2.56669C5.9946 2.18956 6.3268 1.8792 6.71943 1.66421C7.11206 1.44923 7.55249 1.33655 8.00013 1.33655C8.44776 1.33655 8.8882 1.44923 9.28083 1.66421C9.67346 1.8792 10.0057 2.18956 10.2468 2.56669C10.6856 2.46804 11.1422 2.48196 11.5741 2.60717C12.0061 2.73237 12.3994 2.96478 12.7174 3.28279C13.0354 3.6008 13.2678 3.99407 13.393 4.42603C13.5182 4.85798 13.5321 5.31458 13.4335 5.75336C13.8106 5.9945 14.121 6.32669 14.3359 6.71932C14.5509 7.11196 14.6636 7.55239 14.6636 8.00002C14.6636 8.44766 14.5509 8.88809 14.3359 9.28072C14.121 9.67336 13.8106 10.0056 13.4335 10.2467C13.5317 10.6848 13.5177 11.1406 13.3928 11.5719C13.2679 12.0032 13.0361 12.3959 12.719 12.7137C12.4018 13.0315 12.0096 13.2641 11.5786 13.3899C11.1476 13.5157 10.6918 13.5307 10.2535 13.4334C10.0126 13.8119 9.68018 14.1236 9.28688 14.3396C8.89358 14.5555 8.45215 14.6687 8.00346 14.6687C7.55478 14.6687 7.11335 14.5555 6.72004 14.3396C6.32674 14.1236 5.99429 13.8119 5.75346 13.4334C5.31535 13.5316 4.85953 13.5176 4.42827 13.3927C3.997 13.2678 3.60425 13.036 3.28644 12.7189C2.96863 12.4017 2.73604 12.0095 2.61023 11.5785C2.48443 11.1475 2.46949 10.6917 2.5668 10.2534C2.18677 10.0129 1.87374 9.68014 1.65683 9.28617C1.43992 8.8922 1.32617 8.44976 1.32617 8.00002C1.32617 7.55029 1.43992 7.10785 1.65683 6.71388C1.87374 6.31991 2.18677 5.9872 2.5668 5.74669Z" stroke="#666666" stroke-linecap="round" stroke-linejoin="round"/>
<path d="M8.49902 3.9502C8.64909 3.95025 8.76821 3.9963 8.8457 4.09668C8.92244 4.1886 8.97831 4.33443 9.0166 4.52637C9.06117 4.74062 9.21592 5.44174 9.48047 6.62988C9.74489 7.81386 9.96244 8.70727 10.1338 9.31055C10.3056 9.91545 10.4401 10.3258 10.5381 10.5439C10.6341 10.7578 10.7484 10.8788 10.8438 10.9805C10.8744 11.0132 10.9396 11.0633 11.0195 11.1162C11.0982 11.1682 11.1877 11.2204 11.2637 11.2598C11.3304 11.2943 11.4746 11.3396 11.6084 11.3613C11.714 11.3785 11.8086 11.4667 11.8086 11.583C11.8085 11.6961 11.7168 11.7884 11.6035 11.7881C11.2802 11.7873 10.9405 11.7842 10.7617 11.7842H10.2871C10.1186 11.7842 9.97049 11.7346 9.84668 11.6348C9.72377 11.5355 9.62715 11.3888 9.55469 11.1992C9.44785 10.9196 9.28023 10.2899 9.05273 9.3125L8.80566 8.21875L8.12012 5.24609C8.04832 4.93983 7.96133 4.73915 7.86426 4.63477C7.77147 4.53529 7.61116 4.47949 7.37012 4.47949C7.30434 4.4795 7.19283 4.4807 7.04395 4.48145C6.94948 4.48192 6.87305 4.40571 6.87305 4.31152C6.87309 4.23178 6.92835 4.16226 7.00684 4.14551C7.69714 3.99975 8.30754 3.9502 8.49902 3.9502Z" fill="#666666" stroke="#666666" stroke-width="0.1"/>
<path d="M7.93164 7.22388C7.88951 6.98139 7.55671 6.94257 7.45801 7.16724C7.06205 8.06855 6.58945 9.11855 6.31055 9.74146C6.07869 10.2593 6.1423 10.1104 6.02051 10.3577C5.97572 10.4483 5.86426 10.6034 5.75 10.7502C5.6364 10.8962 5.52483 11.0282 5.4834 11.0715C5.45644 11.0997 5.39868 11.1433 5.32715 11.1897C5.25673 11.2354 5.17637 11.2812 5.1084 11.3157C5.05046 11.3451 4.92297 11.3795 4.80273 11.3958C4.70437 11.4091 4.61645 11.4905 4.61621 11.5979C4.61621 11.7025 4.70115 11.7881 4.80566 11.7883H5.74219C6.04149 11.7883 6.38928 11.6173 6.52441 11.2708C6.64934 10.9502 7.49996 8.66961 7.92383 7.34009C7.93591 7.3021 7.93838 7.26269 7.93164 7.22388Z" fill="#666666" stroke="#666666" stroke-width="0.1"/>
</g>
<defs>
<clipPath id="clip0_7337_66340">
<rect width="16" height="16" fill="white"/>
</clipPath>
</defs>
</svg>
